<?xml version="1.0" standalone="no"?>
<!DOCTYPE svg PUBLIC "-//W3C//DTD SVG 20010904//EN"
 "http://www.w3.org/TR/2001/REC-SVG-20010904/DTD/svg10.dtd">
<svg version="1.0" xmlns="http://www.w3.org/2000/svg"
 width="500.000000pt" height="500.000000pt" viewBox="0 0 500.000000 500.000000"
 preserveAspectRatio="xMidYMid meet">

<g transform="translate(0.000000,500.000000) scale(0.100000,-0.100000)"
fill="#000000" stroke="none">
<path d="M2410 3763 c-93 -15 -194 -58 -312 -130 -61 -37 -59 -37 -163 -14
-167 37 -211 43 -290 43 -157 0 -262 -56 -326 -174 -33 -61 -34 -66 -34 -179
0 -113 1 -116 38 -191 20 -42 58 -99 83 -127 53 -59 153 -118 226 -135 l50
-11 37 -92 c20 -51 42 -98 48 -104 9 -9 5 -20 -19 -48 -88 -100 -132 -306 -93
-434 18 -61 66 -130 113 -162 112 -77 277 -84 477 -20 15 4 23 0 30 -17 7 -15
20 -24 40 -26 43 -4 68 27 100 122 34 101 83 181 101 163 3 -2 -1 -44 -9 -93
-16 -100 -10 -145 24 -174 44 -36 127 -21 186 32 l22 20 28 -22 c85 -67 175
-67 306 -2 4 2 7 -16 7 -40 0 -67 28 -207 47 -241 34 -58 111 -56 155 3 28 38
41 133 34 245 -3 55 -9 110 -12 123 -6 22 -5 22 34 16 82 -13 158 38 134 91
-11 24 -13 24 -109 19 -120 -7 -119 -6 -137 -42 -13 -26 -13 -37 1 -103 9 -41
17 -124 17 -186 1 -101 -5 -136 -19 -121 -23 23 -35 380 -15 433 6 15 28 46
50 69 152 160 235 357 200 480 -21 76 -76 104 -138 72 -63 -33 -119 -126 -167
-275 -33 -104 -44 -158 -68 -336 l-12 -90 -55 -32 c-61 -37 -116 -43 -156 -16
l-26 16 54 20 c98 36 148 93 148 169 0 42 -32 96 -66 108 -58 22 -143 3 -192
-43 -38 -35 -64 -96 -69 -161 -4 -47 -11 -67 -31 -88 -28 -30 -59 -36 -68 -14
-3 8 4 62 15 119 26 129 26 159 3 180 -55 50 -150 -5 -221 -126 -30 -51 -31
-51 -31 -20 0 21 11 45 36 75 20 23 43 52 52 63 50 60 77 103 109 171 29 65
34 86 35 151 0 42 -5 80 -11 86 -14 14 -15 47 -1 47 17 0 22 63 10 130 -28
157 -28 155 25 207 109 109 145 267 95 409 -40 116 -108 181 -211 203 -51 11
-64 12 -109 4z m123 -69 c92 -31 148 -126 148 -252 0 -137 -56 -238 -166 -298
-29 -15 -154 -48 -160 -42 -3 3 -7 33 -10 67 -2 38 -11 73 -22 89 l-18 27 -5
-70 c-9 -128 -82 -209 -210 -234 -64 -13 -94 -10 -205 20 -96 26 -121 25 -71
-4 21 -12 39 -26 40 -32 2 -22 -97 -45 -174 -42 -96 5 -138 25 -221 107 -77
76 -107 142 -116 255 -10 134 37 229 141 283 43 22 67 26 151 30 86 3 119 -1
230 -28 278 -67 385 -75 427 -32 29 29 18 55 -17 42 -33 -13 -132 -13 -140 -1
-11 19 149 96 260 124 40 10 93 7 138 -9z m-9 -646 c16 -80 17 -77 -43 -108
-66 -33 -238 -94 -294 -104 -23 -4 -35 -11 -31 -18 16 -25 216 22 327 78 61
30 63 30 72 -3 8 -34 -10 -50 -115 -103 -168 -83 -322 -120 -503 -120 l-107 0
-24 53 c-47 103 -56 129 -51 138 14 22 37 5 60 -46 14 -30 28 -55 32 -55 3 0
3 24 0 53 -3 30 -2 58 1 63 4 5 29 19 55 32 42 20 53 21 93 11 91 -23 207 11
280 82 34 34 47 40 75 37 28 -2 38 -10 59 -48 l25 -45 3 52 c3 50 5 53 35 62
46 13 46 13 51 -11z m-8 -353 c8 -32 -3 -105 -23 -152 -20 -48 -83 -147 -89
-140 -9 9 33 204 55 262 24 59 47 71 57 30z m853 6 c15 -27 -5 -133 -39 -206
-29 -63 -100 -168 -100 -148 0 49 71 298 98 346 19 32 28 34 41 8z m-1019 -48
c-5 -16 -16 -50 -25 -78 -27 -84 -55 -262 -55 -355 0 -64 -4 -93 -15 -103 -27
-27 -148 -57 -232 -57 -105 0 -171 31 -211 98 -24 43 -27 56 -27 142 1 113 25
184 84 252 39 43 39 43 122 49 76 5 86 3 101 -15 14 -17 17 -32 12 -78 -8 -69
4 -88 52 -88 28 0 38 6 55 33 16 26 19 46 17 107 l-3 75 30 9 c17 5 46 15 65
22 19 7 36 13 37 13 1 1 -2 -11 -7 -26z m585 -394 c3 -10 1 -27 -4 -38 -13
-23 -72 -61 -95 -61 -19 0 -16 18 12 78 23 51 74 63 87 21z"/>
<path d="M2470 3631 c0 -5 6 -11 14 -14 21 -8 66 -90 81 -145 l12 -47 12 28
c16 40 14 65 -9 112 -13 27 -32 47 -55 58 -40 19 -55 21 -55 8z"/>
<path d="M1770 3402 c-51 -25 -80 -74 -80 -137 0 -28 3 -55 7 -58 3 -4 14 16
24 45 23 64 51 105 97 141 33 25 34 27 11 27 -13 0 -40 -8 -59 -18z"/>
<path d="M2804 3605 c-10 -26 3 -41 53 -59 202 -74 312 -143 466 -294 158
-155 268 -365 312 -594 21 -114 19 -321 -4 -428 -53 -239 -153 -424 -316 -585
-235 -233 -481 -335 -810 -335 -253 0 -432 53 -633 187 -240 159 -404 391
-484 683 -20 76 -23 106 -22 280 0 173 3 203 23 270 40 132 38 170 -8 155 -21
-6 -51 -92 -77 -224 -23 -117 -15 -381 15 -496 112 -424 406 -738 817 -874
127 -42 239 -55 424 -48 194 7 304 33 475 113 121 57 294 187 369 279 21 24
43 51 50 58 55 54 166 258 204 372 50 149 56 192 56 390 0 178 -2 197 -28 295
-55 200 -122 331 -245 480 -132 161 -317 292 -521 369 -65 25 -108 27 -116 6z"/>
<path d="M2680 2821 c-21 -40 -7 -107 31 -147 12 -13 39 -25 67 -29 55 -8 82
-21 81 -38 0 -7 -29 -36 -65 -65 -35 -29 -64 -59 -64 -66 0 -19 33 -46 56 -46
20 0 25 5 82 78 19 23 37 42 41 42 5 0 29 -27 55 -60 49 -62 72 -72 100 -44
29 28 18 57 -36 99 -28 22 -62 50 -77 62 -14 13 -29 23 -34 23 -15 0 -47 66
-47 96 0 60 -66 114 -139 114 -30 0 -43 -5 -51 -19z"/>
<path d="M3020 2788 c-54 -41 -68 -58 -81 -99 -14 -42 -14 -51 -2 -61 18 -15
123 16 123 37 0 7 3 15 8 17 14 6 83 110 78 116 -4 3 -21 -11 -40 -31 -19 -20
-37 -37 -41 -37 -4 0 9 18 29 40 20 22 36 42 36 45 0 14 -23 0 -69 -41 -67
-60 -66 -50 2 15 67 65 42 64 -43 -1z"/>
<path d="M1869 1833 c-6 -53 -2 -97 9 -100 7 -3 12 4 12 16 0 27 16 27 32 1 7
-11 18 -20 25 -20 16 0 17 12 2 27 -8 8 -7 16 2 31 10 17 10 23 0 36 -13 16
-80 23 -82 9z m54 -28 c1 -5 -6 -11 -15 -13 -11 -2 -18 3 -18 13 0 17 30 18
33 0z"/>
<path d="M1990 1785 l0 -55 40 0 c22 0 40 5 40 10 0 6 -11 10 -25 10 -16 0
-25 6 -25 15 0 9 10 15 26 15 14 0 23 4 19 10 -3 6 -15 10 -26 10 -10 0 -19 5
-19 10 0 6 11 10 25 10 14 0 25 5 25 10 0 6 -18 10 -40 10 l-40 0 0 -55z"/>
<path d="M2111 1826 c-16 -19 -4 -43 25 -50 24 -7 31 -20 15 -31 -5 -3 -17 2
-26 11 -18 18 -31 13 -22 -9 13 -35 87 -23 87 14 0 14 -10 24 -30 32 -31 12
-40 27 -16 27 8 0 16 -5 18 -12 2 -6 10 -8 17 -4 9 6 9 11 0 22 -15 18 -53 18
-68 0z"/>
<path d="M2210 1830 c0 -5 7 -10 15 -10 11 0 15 -12 15 -45 0 -33 4 -45 15
-45 11 0 15 12 15 45 0 33 4 45 15 45 8 0 15 5 15 10 0 6 -20 10 -45 10 -25 0
-45 -4 -45 -10z"/>
<path d="M2330 1798 c-30 -65 -27 -79 10 -56 16 10 24 10 41 0 12 -7 23 -11
26 -8 9 8 -31 99 -45 104 -7 2 -21 -16 -32 -40z m40 -13 c0 -8 -4 -15 -10 -15
-5 0 -10 7 -10 15 0 8 5 15 10 15 6 0 10 -7 10 -15z"/>
<path d="M2430 1798 c0 -56 11 -71 50 -71 39 0 50 15 50 71 0 31 -4 42 -15 42
-11 0 -15 -12 -15 -45 0 -38 -3 -45 -20 -45 -17 0 -20 7 -20 45 0 33 -4 45
-15 45 -11 0 -15 -11 -15 -42z"/>
<path d="M2560 1785 c0 -42 3 -55 15 -55 8 0 15 9 15 20 0 11 3 20 8 20 4 0
13 -9 20 -20 7 -11 19 -20 28 -20 15 0 15 2 0 25 -9 14 -12 25 -6 25 16 0 11
47 -6 54 -9 3 -29 6 -45 6 -29 0 -29 -1 -29 -55z m63 20 c1 -5 -6 -11 -15 -13
-11 -2 -18 3 -18 13 0 17 30 18 33 0z"/>
<path d="M2712 1828 c-17 -22 -36 -87 -28 -95 5 -5 11 -2 13 5 5 14 53 17 53
2 0 -5 7 -10 16 -10 16 0 14 14 -12 78 -14 34 -25 40 -42 20z m28 -49 c0 -5
-4 -9 -10 -9 -5 0 -10 7 -10 16 0 8 5 12 10 9 6 -3 10 -10 10 -16z"/>
<path d="M2810 1785 c0 -30 5 -55 10 -55 6 0 10 15 10 32 l0 33 23 -32 c33
-49 47 -42 47 22 0 30 -4 55 -10 55 -5 0 -10 -15 -10 -32 l0 -33 -26 33 c-14
17 -30 32 -35 32 -5 0 -9 -25 -9 -55z"/>
<path d="M2930 1831 c0 -5 6 -11 14 -14 9 -4 16 -23 18 -49 4 -58 22 -55 26 5
2 33 7 47 18 47 7 0 14 5 14 10 0 6 -20 10 -45 10 -25 0 -45 -4 -45 -9z"/>
</g>
</svg>
